<?xml version="1.0" standalone="no"?>
<!DOCTYPE svg PUBLIC "-//W3C//DTD SVG 20010904//EN"
 "http://www.w3.org/TR/2001/REC-SVG-20010904/DTD/svg10.dtd">
<svg version="1.0" xmlns="http://www.w3.org/2000/svg"
 width="512.000000pt" height="512.000000pt" viewBox="0 0 512.000000 512.000000"
 preserveAspectRatio="xMidYMid meet">
<metadata>
Created by potrace 1.14, written by Peter Selinger 2001-2017
</metadata>
<g transform="translate(0.000000,512.000000) scale(0.100000,-0.100000)"
fill="#000000" stroke="none">
<path d="M1977 4344 c-1 -1 -137 -5 -302 -8 -165 -4 -325 -9 -355 -11 -30 -2
-107 -6 -170 -10 -63 -3 -130 -8 -149 -9 -19 -2 -80 -7 -135 -11 -56 -4 -112
-8 -126 -10 -14 -2 -50 -6 -80 -9 -217 -25 -401 -147 -503 -336 -36 -66 -71
-172 -82 -244 -3 -21 -7 -41 -9 -45 -2 -3 -7 -31 -11 -61 -4 -30 -8 -57 -10
-60 -2 -3 -6 -41 -10 -85 -4 -44 -8 -91 -11 -105 -26 -157 -26 -1363 0 -1575
2 -16 7 -57 10 -90 23 -198 65 -382 108 -471 61 -125 185 -247 308 -302 99
-45 161 -56 420 -77 47 -4 101 -8 120 -10 34 -3 205 -14 325 -20 451 -24 2222
-23 2495 0 25 2 99 7 165 10 66 4 136 8 155 10 19 2 76 6 125 10 50 3 101 8
115 10 14 2 53 7 88 10 73 8 173 35 223 60 128 65 239 180 300 310 38 81 59
160 84 315 4 25 9 54 11 65 4 18 9 65 20 180 27 282 27 1417 0 1585 -3 14 -7
52 -10 85 -8 82 -41 267 -60 341 -22 85 -41 127 -92 205 -106 160 -279 264
-474 284 -30 3 -71 7 -90 10 -70 9 -331 28 -565 40 -192 11 -672 18 -1203 19
-343 1 -624 0 -625 0z m163 -1011 c63 -33 187 -97 275 -143 88 -45 187 -97
220 -115 96 -52 567 -297 762 -397 95 -49 120 -65 110 -75 -6 -6 -75 -44 -152
-83 -77 -40 -185 -96 -240 -125 -55 -29 -181 -94 -280 -145 -99 -51 -220 -114
-270 -140 -49 -26 -171 -89 -270 -140 -99 -51 -226 -117 -282 -146 -56 -30
-104 -54 -107 -54 -4 0 -6 380 -6 845 l0 845 63 -33 c34 -19 114 -61 177 -94z"/>
</g>
</svg>
